<svg version="1.0" xmlns="http://www.w3.org/2000/svg" width="1706.667" height="1340" viewBox="0 0 1280 1005"><path d="M738.7 1C681 6.6 627.7 27.8 584 62.7c-11.7 9.4-31.6 28.8-41.7 40.8-28.9 34.4-51.6 81-60.4 124.1-1.2 6-2.7 11.4-3.3 12-.6.6-7.8 2.3-16.1 3.8-8.2 1.5-15.7 2.9-16.6 3.2-1.2.3-3.5-2.4-8.4-9.6-27.5-41.4-65.9-72.5-112.2-90.9-46.5-18.5-103.4-21.2-151.8-7.2-30 8.6-57.4 22.6-82.5 42-11.7 9-33 30.6-41.9 42.4-20.4 27.3-35.2 58.3-42.4 89.2-11.4 48.4-7.8 98.7 10.3 143.9 14.2 35.7 38.3 69 68.5 94.6 23.5 19.9 59 38.8 86.8 46.2l8.7 2.3V626h-23.9c-14 0-24.1-.4-24.3-.9-.2-.6-13.1-5.7-28.7-11.5L75.7 603H55.8c-10.9 0-19.8.2-19.8.5 0 .4 61.7 129.1 62.6 130.6.2.3 5.6-.8 12-2.6l11.6-3.1 6.6-10.7 6.5-10.7H181v298h830V510h-64.4l4.5-3.7c41-34.4 74.1-86 89.3-139.4 12.5-43.8 14.3-91.9 5.1-137.5-10.6-52.3-37.1-102.3-75-141.3-40.1-41.3-87.5-68-143.6-81-24.1-5.6-64.5-8.4-88.2-6.1zM518.8 439.7c12.6 20.6 27.4 38.6 47.1 57.4l13.4 12.9h-74.2c-40.9 0-74.1-.3-73.9-.8.2-.4 3.3-5.2 6.9-10.7 11-16.4 22.5-40 26.9-55.1l1.2-4.1 14.7-2.8c13.1-2.5 31.4-6.1 31.8-6.4 0-.1 2.8 4.3 6.1 9.6zm419.6 467.8c9.3 4.5 14.6 13 14.6 23.5 0 7.6-2.1 12.9-7.1 17.8-5.4 5.5-10.4 7.6-18.4 7.6-7.9.1-13-2-18.5-7.6-12.9-12.9-7.7-35.7 9.7-42.3 5-1.9 14.7-1.4 19.7 1z"/><path d="m1206 524-72.4 44H1019l.2 110.2.3 110.3 58 .5 58 .5 71.5 43.4c39.3 23.8 71.8 43.5 72.3 43.8.4.2.7-88.9.7-198.1 0-109.2-.3-198.6-.7-198.6-.5.1-33.4 19.9-73.3 44z"/></svg>