<svg aria-hidden="true" style="width:0;height:0;position:absolute;overflow:hidden" xmlns="http://www.w3.org/2000/svg"><defs><symbol id="close-btn" viewBox="0 0 32 32"><path d="M22.857 14.476V12.19h2.286V9.904h2.286V7.618h2.286V5.332h2.286V2.284h-2.286V-.002h-3.048v2.286h-2.286V4.57h-2.286v2.286h-2.286v2.286h-2.286v2.286h-3.048V9.142h-2.286V6.856H9.903V4.57H7.617V2.284H5.331V-.002H2.283v2.286H-.003v3.048h2.286v2.286h2.286v2.286h2.286v2.286h2.286v2.286h2.286v3.048H9.141v2.286H6.855v2.286H4.569v2.286H2.283v2.286H-.003v3.048h2.286v2.286h3.048v-2.286h2.286V27.43h2.286v-2.286h2.286v-2.286h2.286v-2.286h3.048v2.286h2.286v2.286h2.286v2.286h2.286v2.286h2.286v2.286h3.048v-2.286h2.286v-3.048h-2.286v-2.286h-2.286v-2.286h-2.286V19.81h-2.286v-2.286h-2.286v-3.048z"/></symbol><symbol id="film" viewBox="0 0 32 32"><path fill="none" stroke="#fff" style="stroke:var(--color1,#fff)" stroke-linejoin="round" stroke-linecap="round" stroke-width="2.667" d="M26.427 2.667H5.574a2.907 2.907 0 0 0-2.907 2.907v20.853a2.907 2.907 0 0 0 2.907 2.907v0h20.853a2.907 2.907 0 0 0 2.907-2.907v0V5.574a2.907 2.907 0 0 0-2.907-2.907v0zm-17.094 0v26.667M22.667 2.667v26.667M2.667 16h26.667M2.667 9.333h6.667M2.667 22.667h6.667m13.333 0h6.667M22.667 9.333h6.667"/></symbol><symbol id="search" viewBox="0 0 32 32"><path fill="none" stroke="#fff" style="stroke:var(--color1,#fff)" stroke-linejoin="round" stroke-linecap="round" stroke-width="2.667" d="M14.667 25.333c5.891 0 10.667-4.776 10.667-10.667S20.558 3.999 14.667 3.999v0C8.776 3.999 4 8.775 4 14.666s4.776 10.667 10.667 10.667v0zM28 28l-5.8-5.8"/></symbol></defs></svg>