<svg aria-hidden="true" style="position: absolute; width: 0; height: 0; overflow: hidden;" version="1.1" xmlns="http://www.w3.org/2000/svg" xmlns:xlink="http://www.w3.org/1999/xlink">
<defs>
<symbol id="close-btn" viewBox="0 0 32 32">
<path d="M22.857 14.476v-2.286h2.286v-2.286h2.286v-2.286h2.286v-2.286h2.286v-3.048h-2.286v-2.286h-3.048v2.286h-2.286v2.286h-2.286v2.286h-2.286v2.286h-2.286v2.286h-3.048v-2.286h-2.286v-2.286h-2.286v-2.286h-2.286v-2.286h-2.286v-2.286h-3.048v2.286h-2.286v3.048h2.286v2.286h2.286v2.286h2.286v2.286h2.286v2.286h2.286v3.048h-2.286v2.286h-2.286v2.286h-2.286v2.286h-2.286v2.286h-2.286v3.048h2.286v2.286h3.048v-2.286h2.286v-2.286h2.286v-2.286h2.286v-2.286h2.286v-2.286h3.048v2.286h2.286v2.286h2.286v2.286h2.286v2.286h2.286v2.286h3.048v-2.286h2.286v-3.048h-2.286v-2.286h-2.286v-2.286h-2.286v-2.286h-2.286v-2.286h-2.286v-3.048z"></path>
</symbol>
<symbol id="film" viewBox="0 0 32 32"><path fill="none" stroke="#fff" style="stroke:var(--color1, #fff)" stroke-linejoin="round" stroke-linecap="round" stroke-width="2.667" d="M26.427 2.667H5.574a2.907 2.907 0 0 0-2.907 2.907v20.853a2.907 2.907 0 0 0 2.907 2.907v0h20.853a2.907 2.907 0 0 0 2.907-2.907v0V5.574a2.907 2.907 0 0 0-2.907-2.907v0zm-17.094 0v26.667M22.667 2.667v26.667M2.667 16h26.667M2.667 9.333h6.667M2.667 22.667h6.667m13.333 0h6.667M22.667 9.333h6.667"/></symbol><symbol id="search" viewBox="0 0 32 32"><path fill="none" stroke="#fff" style="stroke:var(--color1, #fff)" stroke-linejoin="round" stroke-linecap="round" stroke-width="2.667" d="M14.667 25.333c5.891 0 10.667-4.776 10.667-10.667S20.558 3.999 14.667 3.999v0C8.776 3.999 4 8.775 4 14.666s4.776 10.667 10.667 10.667v0zM28 28l-5.8-5.8"/></symbol>
</defs>
</svg>